<svg width="133" height="101" viewBox="0 0 133 101" fill="none" xmlns="http://www.w3.org/2000/svg">
<path d="M68.7856 45.7029C68.9378 45.5846 69.0576 45.3763 69.0576 44.9629C69.0576 44.6547 68.9877 44.4142 68.8672 44.2215C68.7227 43.9906 68.5504 43.8086 68.351 43.6688L68.3431 43.6632L68.3353 43.6573C68.1109 43.4866 67.7897 43.2794 67.3634 43.035L67.3595 43.0328L67.3595 43.0328C66.9263 42.7793 66.573 42.5548 66.3055 42.3605L66.2984 42.3554L66.2985 42.3553C66.0049 42.1341 65.7592 41.858 65.5601 41.5333M68.7856 45.7029L65.5601 41.5333M68.7856 45.7029C68.585 45.8569 68.3243 45.9471 67.9718 45.9471C67.4651 45.9471 67.0922 45.7774 66.8044 45.4491C66.4799 45.0683 66.2526 44.6102 66.1272 44.0639L66.1274 44.0638L66.124 44.0507C66.0829 43.8915 65.9713 43.7488 65.8016 43.6784C65.6631 43.6209 65.5351 43.6324 65.4669 43.6434L65.4592 43.6446L65.4515 43.6461C65.3814 43.6597 65.231 43.7001 65.1145 43.8411C64.9962 43.9844 64.9796 44.146 64.9975 44.2681L65.169 46.0058L65.1697 46.0132L65.1707 46.0207C65.1802 46.0946 65.1922 46.1711 65.2091 46.2365L65.2231 46.2909L65.2489 46.3409C65.3225 46.4835 65.4347 46.5758 65.5353 46.6342L65.5438 46.6391L65.5524 46.6437C66.1976 46.9854 66.905 47.1536 67.6653 47.1536C68.2956 47.1536 68.8643 47.0505 69.3546 46.8233L69.3546 46.8234L69.3586 46.8215C69.8473 46.5899 70.241 46.265 70.5126 45.8376C70.7788 45.4187 70.9104 44.9508 70.9104 44.4467C70.9104 43.9797 70.7975 43.5496 70.5497 43.1803C70.3404 42.8479 70.0801 42.5687 69.7682 42.3492C69.4999 42.1546 69.1247 41.9177 68.6506 41.6405C68.2328 41.396 67.9066 41.1964 67.669 41.0406C67.4816 40.9048 67.3212 40.7389 67.1867 40.5401C67.0801 40.3826 67.0194 40.1902 67.0194 39.9427C67.0194 39.6339 67.1059 39.4115 67.2557 39.2392C67.3816 39.0957 67.597 38.9844 67.9985 38.9844C68.4638 38.9844 68.7561 39.1311 68.9545 39.3782L68.9545 39.3782L68.958 39.3825C69.2172 39.6981 69.3675 40.03 69.4235 40.3825L69.4273 40.406L69.4332 40.429C69.465 40.552 69.541 40.6777 69.6728 40.7628C69.7932 40.8406 69.9158 40.8557 69.9973 40.8557C70.0702 40.8557 70.2168 40.8439 70.3535 40.738C70.5144 40.6133 70.5639 40.4373 70.5639 40.304V40.2883L70.5629 40.2727L70.4704 38.7998C70.4659 38.6367 70.4067 38.4786 70.2903 38.3509C70.1847 38.235 70.0556 38.1695 69.9428 38.1308C69.3764 37.9057 68.7984 37.7908 68.2117 37.7908C67.7241 37.7908 67.2568 37.8795 66.8139 38.0586M68.7856 45.7029L66.8139 38.0586M65.5601 41.5333C65.3364 41.1684 65.2332 40.7525 65.2332 40.304C65.2332 39.7792 65.3761 39.3027 65.6829 38.9028L65.6843 38.9009L65.6843 38.9009C65.9802 38.5189 66.36 38.2371 66.8139 38.0586M65.5601 41.5333L66.8139 38.0586" fill="black" stroke="black"/>
<g filter="url(#filter0_di_32_33)">
<mask id="path-2-inside-1_32_33" fill="white">
<path d="M117.063 3.87639C116.976 3.8667 116.889 3.86767 116.803 3.86089C116.784 3.86089 116.767 3.85508 116.748 3.85508H116.706C116.409 3.83667 116.11 3.83667 115.81 3.85508H79.8936C78.8037 1.99503 76.9969 0.904297 74.8171 0.904297H60.9345C58.8487 0.904297 57.694 1.86242 57.0934 2.66651C56.8124 3.04142 56.6293 3.44443 56.485 3.85714H20.7596C20.4816 3.84164 20.2026 3.84454 19.9236 3.85714H19.3597C19.0459 3.85714 18.7485 3.92107 18.4685 4.01698C18.109 3.92689 17.7264 3.90267 17.3379 3.96661C9.01901 5.34711 3.19953 15.5046 4.08988 27.0902C4.72152 35.3211 8.15396 42.6283 13.2701 46.6391C16.0205 48.7956 19.0799 49.9039 22.2226 49.9039C22.8727 49.9039 23.5266 49.8487 24.1805 49.7527H47.1154C47.1048 50.1093 47.0747 50.5016 47.0486 50.8523C46.9168 52.5699 46.7512 54.7081 48.0629 56.5118C49.3833 58.3283 51.4797 58.8311 53.1624 59.2349C53.8744 59.4054 54.7609 59.6186 55.0738 59.8462C55.1348 59.8908 55.2075 59.9712 55.2792 60.0574V89.6024C55.2792 90.6632 55.8846 91.631 56.836 92.0971C57.7902 92.5641 58.9247 92.4469 59.7607 91.7939L68.0446 85.3514L76.3276 91.7939C76.8236 92.1804 77.4261 92.379 78.0326 92.379C78.4482 92.379 78.8657 92.286 79.2533 92.0971C80.2056 91.6302 80.8101 90.6624 80.8101 89.6017L80.811 60.0691C80.8885 59.977 80.9641 59.8937 81.028 59.8482C81.341 59.6205 82.2264 59.4084 82.9394 59.2369C84.6232 58.8329 86.7186 58.3301 88.0389 56.5145C89.3497 54.7116 89.186 52.5725 89.0542 50.854C89.0261 50.5023 88.9971 50.111 88.9874 49.7545H108.623C113.437 49.7545 117.741 46.9334 119.34 42.7173C119.655 41.8657 119.933 41.0064 120.189 40.1452C125.776 38.6494 129.517 30.965 128.942 21.9361C128.289 11.7708 123.36 4.34024 117.062 3.87523L117.063 3.87639ZM74.8171 6.46012C75.0738 6.46012 75.2337 6.89027 75.3112 7.17121C75.318 7.20318 75.3276 7.23418 75.3364 7.26518C75.3431 7.29134 75.3528 7.32912 75.3587 7.34849C76.279 11.5306 76.5599 15.2817 76.2267 18.7055C76.0513 18.628 75.8799 18.5456 75.689 18.4846C75.1668 18.315 74.6098 18.2288 74.0353 18.2288C72.5656 18.2288 71.2288 18.7801 70.0478 19.2674C69.3503 19.5551 68.4823 19.9116 68.0531 19.9116C67.623 19.9116 66.7549 19.5532 66.0574 19.2654C65.1884 18.907 64.2313 18.5166 63.2004 18.3335C63.4726 15.3554 63.2634 12.2516 62.5542 9.18823C62.4806 8.87048 62.3682 8.48295 62.2413 8.05186C62.1347 7.68759 61.9381 7.024 61.8209 6.45919L74.8171 6.46012ZM23.9981 44.1993C23.8915 44.1993 23.7898 44.2187 23.6871 44.2312C23.6416 44.2371 23.5951 44.2322 23.5495 44.24C20.5908 44.7331 18.1904 43.4397 16.6954 42.2695C12.7843 39.2034 10.1396 33.3693 9.62619 26.6674C8.97614 18.2178 12.9229 10.3319 18.2434 9.4483C18.3141 9.43764 18.3771 9.41051 18.4449 9.39404C18.8479 9.50545 19.28 9.53742 19.7189 9.45217C19.8816 9.4202 20.0424 9.41923 20.2032 9.41342H20.5433C21.2156 9.46767 21.8812 9.7457 22.5651 10.2708C25.1479 12.2568 27.0399 16.9746 27.3799 22.2894C27.7936 28.7123 25.3096 34.0861 22.7638 34.7778L22.1244 34.7768C21.9771 34.7264 21.8076 34.6509 21.5983 34.4881C20.4222 33.5852 19.1347 31.081 18.9052 27.5256C18.6369 23.3355 20.3816 20.6997 21.1538 20.5464C22.6583 20.2481 23.6358 18.7852 23.3374 17.2817C23.0371 15.7772 21.5791 14.8016 20.0706 15.0971C15.8302 15.9389 12.9462 21.4349 13.3598 27.8811C13.6698 32.6785 15.4834 36.7947 18.2123 38.8931C19.0716 39.5528 20.0152 39.981 20.987 40.2067C21.081 40.2348 21.175 40.2639 21.2728 40.2813C21.6613 40.354 22.0546 40.3956 22.4489 40.3956C22.6669 40.3956 22.8868 40.354 23.1048 40.3317H43.603C43.4431 40.8451 43.3463 41.3945 43.3463 41.9873C43.3463 42.8011 43.5294 43.5316 43.8103 44.1981L23.9981 44.1993ZM48.0654 27.4628C46.7546 29.2657 46.9183 31.4049 47.0501 33.1233C47.0927 33.6736 47.1421 34.3217 47.1131 34.777H30.3862C32.257 31.4289 33.244 26.8874 32.9263 21.932C32.6115 17.0242 31.2349 12.6491 29.1182 9.41165H56.8528C56.8741 9.47946 56.8944 9.556 56.9138 9.62284C57.0039 9.93382 57.0901 10.2128 57.1434 10.4405C57.9446 13.9116 57.9785 17.4177 57.2364 20.5845C57.1986 20.7424 57.1841 20.9012 57.1754 21.0582C56.8198 21.5523 56.506 22.0551 56.2202 22.5249C55.8636 23.1101 55.3754 23.9093 55.077 24.1273C54.7641 24.3549 53.8786 24.5671 53.1656 24.7386C51.4819 25.1425 49.3868 25.6455 48.0654 27.4628ZM75.2568 83.9264L69.7513 79.6444C68.7496 78.8636 67.343 78.8636 66.3422 79.6444L60.8357 83.9264L60.8348 65.5923C61.2329 65.6853 61.6427 65.7483 62.069 65.7483C63.5386 65.7483 64.8754 65.197 66.0564 64.7098C66.754 64.422 67.622 64.0636 68.0521 64.0636C68.4813 64.0636 69.3493 64.422 70.0468 64.7098C71.2278 65.197 72.5646 65.7483 74.0343 65.7483C74.4567 65.7483 74.8616 65.6853 75.2579 65.5943V83.9264L75.2568 83.9264ZM85.9781 43.6576C85.5267 44.1827 85.0501 44.7533 84.6306 45.384C84.5928 45.4363 84.5628 45.4935 84.5289 45.5506C84.2246 46.0282 83.9495 46.5329 83.7674 47.0978C83.3033 48.5286 83.4157 49.9905 83.5146 51.2819C83.563 51.9203 83.6463 52.9898 83.5775 53.2097C83.3276 53.4316 82.2716 53.6864 81.64 53.8375C80.3873 54.1388 78.9652 54.4808 77.7599 55.3585C76.9006 55.9823 76.2738 56.7971 75.7391 57.6109C75.7352 57.6176 75.7294 57.6244 75.7236 57.6322C75.5182 57.946 75.3234 58.2589 75.1384 58.5603C74.7964 59.1202 74.2248 60.059 74.0398 60.1936H74.0301C73.661 60.1936 72.794 59.8371 72.1604 59.5755C70.9494 59.0756 69.5786 58.5099 68.0479 58.5099C66.5172 58.5099 65.1455 59.0746 63.9345 59.5755C63.3009 59.8371 62.4348 60.1936 62.1655 60.2256C61.8729 60.0589 61.3004 59.1212 60.9584 58.5603C60.7753 58.2599 60.5835 57.9509 60.3791 57.6409C60.3597 57.6099 60.3384 57.5828 60.3181 57.5518C59.792 56.7574 59.1768 55.9669 58.3388 55.3575C57.1317 54.4788 55.7095 54.1378 54.457 53.8365C53.8254 53.6854 52.7694 53.4306 52.5825 53.2959C52.4517 52.9907 52.535 51.9212 52.5834 51.2818C52.6823 49.9905 52.7946 48.5277 52.3306 47.0957C52.1475 46.5319 51.8724 46.0281 51.5691 45.5515C51.5343 45.4943 51.5042 45.4362 51.4664 45.3839C51.047 44.7551 50.5694 44.1836 50.1179 43.6585C49.6829 43.1499 48.9515 42.2993 48.8934 42.0145C48.9515 41.6803 49.682 40.8287 50.1179 40.3211C50.9443 39.3601 51.8791 38.2702 52.3306 36.881C52.7946 35.4501 52.6823 33.9882 52.5834 32.6969C52.535 32.0585 52.4517 30.987 52.5205 30.769C52.7704 30.5472 53.8244 30.2924 54.458 30.1413C55.7107 29.84 57.1328 29.498 58.3398 28.6203C59.5343 27.7513 60.29 26.5122 60.9575 25.4195C61.2995 24.8586 61.8711 23.9208 62.0668 23.7852C62.4359 23.7852 63.303 24.1417 63.9365 24.4033C65.1465 24.9022 66.5183 25.4689 68.049 25.4689C69.5777 25.4689 70.9504 24.9042 72.1594 24.4033C72.793 24.1417 73.6611 23.7852 73.9313 23.7532C74.2239 23.9199 74.7964 24.8586 75.1384 25.4186C75.8049 26.5113 76.5606 27.7494 77.7561 28.6193C78.9632 29.497 80.3855 29.839 81.6379 30.1403C82.2696 30.2914 83.3256 30.5462 83.5145 30.6818C83.6452 30.986 83.5619 32.0565 83.5135 32.6959C83.4147 33.9863 83.3023 35.45 83.7663 36.8791C84.0347 37.7044 84.4774 38.4155 84.9637 39.0646C85.0044 39.1256 85.0509 39.1809 85.0955 39.238C85.3871 39.6158 85.6874 39.9801 85.9771 40.3182C86.413 40.8268 87.1435 41.6765 87.2016 41.9613C87.1444 42.2974 86.416 43.1481 85.9781 43.6576ZM114.137 40.7649C113.358 42.8187 111.142 44.1993 108.621 44.1993H92.2939C92.5748 43.5328 92.7579 42.8023 92.7579 41.9885C92.7579 41.3956 92.661 40.8454 92.5012 40.3329H114.284C114.232 40.4753 114.19 40.6215 114.137 40.7649ZM118.786 34.7768H117.764H117.728H88.994C88.9649 34.3214 89.0153 33.6724 89.057 33.1231C89.1887 31.4054 89.3524 29.2663 88.0417 27.4636C86.7212 25.6471 84.6249 25.1443 82.9422 24.7404C82.2301 24.5699 81.3437 24.3568 81.0308 24.1311C80.9949 24.1049 80.9504 24.0478 80.9097 24.0071C82.0635 19.5943 82.2263 14.7835 81.3873 9.41339H116.57C119.479 9.65752 122.907 14.6352 123.398 22.2924C123.805 28.6959 121.331 34.059 118.788 34.777L118.786 34.7768Z"/>
</mask>
<path d="M117.063 3.87639C116.976 3.8667 116.889 3.86767 116.803 3.86089C116.784 3.86089 116.767 3.85508 116.748 3.85508H116.706C116.409 3.83667 116.11 3.83667 115.81 3.85508H79.8936C78.8037 1.99503 76.9969 0.904297 74.8171 0.904297H60.9345C58.8487 0.904297 57.694 1.86242 57.0934 2.66651C56.8124 3.04142 56.6293 3.44443 56.485 3.85714H20.7596C20.4816 3.84164 20.2026 3.84454 19.9236 3.85714H19.3597C19.0459 3.85714 18.7485 3.92107 18.4685 4.01698C18.109 3.92689 17.7264 3.90267 17.3379 3.96661C9.01901 5.34711 3.19953 15.5046 4.08988 27.0902C4.72152 35.3211 8.15396 42.6283 13.2701 46.6391C16.0205 48.7956 19.0799 49.9039 22.2226 49.9039C22.8727 49.9039 23.5266 49.8487 24.1805 49.7527H47.1154C47.1048 50.1093 47.0747 50.5016 47.0486 50.8523C46.9168 52.5699 46.7512 54.7081 48.0629 56.5118C49.3833 58.3283 51.4797 58.8311 53.1624 59.2349C53.8744 59.4054 54.7609 59.6186 55.0738 59.8462C55.1348 59.8908 55.2075 59.9712 55.2792 60.0574V89.6024C55.2792 90.6632 55.8846 91.631 56.836 92.0971C57.7902 92.5641 58.9247 92.4469 59.7607 91.7939L68.0446 85.3514L76.3276 91.7939C76.8236 92.1804 77.4261 92.379 78.0326 92.379C78.4482 92.379 78.8657 92.286 79.2533 92.0971C80.2056 91.6302 80.8101 90.6624 80.8101 89.6017L80.811 60.0691C80.8885 59.977 80.9641 59.8937 81.028 59.8482C81.341 59.6205 82.2264 59.4084 82.9394 59.2369C84.6232 58.8329 86.7186 58.3301 88.0389 56.5145C89.3497 54.7116 89.186 52.5725 89.0542 50.854C89.0261 50.5023 88.9971 50.111 88.9874 49.7545H108.623C113.437 49.7545 117.741 46.9334 119.34 42.7173C119.655 41.8657 119.933 41.0064 120.189 40.1452C125.776 38.6494 129.517 30.965 128.942 21.9361C128.289 11.7708 123.36 4.34024 117.062 3.87523L117.063 3.87639ZM74.8171 6.46012C75.0738 6.46012 75.2337 6.89027 75.3112 7.17121C75.318 7.20318 75.3276 7.23418 75.3364 7.26518C75.3431 7.29134 75.3528 7.32912 75.3587 7.34849C76.279 11.5306 76.5599 15.2817 76.2267 18.7055C76.0513 18.628 75.8799 18.5456 75.689 18.4846C75.1668 18.315 74.6098 18.2288 74.0353 18.2288C72.5656 18.2288 71.2288 18.7801 70.0478 19.2674C69.3503 19.5551 68.4823 19.9116 68.0531 19.9116C67.623 19.9116 66.7549 19.5532 66.0574 19.2654C65.1884 18.907 64.2313 18.5166 63.2004 18.3335C63.4726 15.3554 63.2634 12.2516 62.5542 9.18823C62.4806 8.87048 62.3682 8.48295 62.2413 8.05186C62.1347 7.68759 61.9381 7.024 61.8209 6.45919L74.8171 6.46012ZM23.9981 44.1993C23.8915 44.1993 23.7898 44.2187 23.6871 44.2312C23.6416 44.2371 23.5951 44.2322 23.5495 44.24C20.5908 44.7331 18.1904 43.4397 16.6954 42.2695C12.7843 39.2034 10.1396 33.3693 9.62619 26.6674C8.97614 18.2178 12.9229 10.3319 18.2434 9.4483C18.3141 9.43764 18.3771 9.41051 18.4449 9.39404C18.8479 9.50545 19.28 9.53742 19.7189 9.45217C19.8816 9.4202 20.0424 9.41923 20.2032 9.41342H20.5433C21.2156 9.46767 21.8812 9.7457 22.5651 10.2708C25.1479 12.2568 27.0399 16.9746 27.3799 22.2894C27.7936 28.7123 25.3096 34.0861 22.7638 34.7778L22.1244 34.7768C21.9771 34.7264 21.8076 34.6509 21.5983 34.4881C20.4222 33.5852 19.1347 31.081 18.9052 27.5256C18.6369 23.3355 20.3816 20.6997 21.1538 20.5464C22.6583 20.2481 23.6358 18.7852 23.3374 17.2817C23.0371 15.7772 21.5791 14.8016 20.0706 15.0971C15.8302 15.9389 12.9462 21.4349 13.3598 27.8811C13.6698 32.6785 15.4834 36.7947 18.2123 38.8931C19.0716 39.5528 20.0152 39.981 20.987 40.2067C21.081 40.2348 21.175 40.2639 21.2728 40.2813C21.6613 40.354 22.0546 40.3956 22.4489 40.3956C22.6669 40.3956 22.8868 40.354 23.1048 40.3317H43.603C43.4431 40.8451 43.3463 41.3945 43.3463 41.9873C43.3463 42.8011 43.5294 43.5316 43.8103 44.1981L23.9981 44.1993ZM48.0654 27.4628C46.7546 29.2657 46.9183 31.4049 47.0501 33.1233C47.0927 33.6736 47.1421 34.3217 47.1131 34.777H30.3862C32.257 31.4289 33.244 26.8874 32.9263 21.932C32.6115 17.0242 31.2349 12.6491 29.1182 9.41165H56.8528C56.8741 9.47946 56.8944 9.556 56.9138 9.62284C57.0039 9.93382 57.0901 10.2128 57.1434 10.4405C57.9446 13.9116 57.9785 17.4177 57.2364 20.5845C57.1986 20.7424 57.1841 20.9012 57.1754 21.0582C56.8198 21.5523 56.506 22.0551 56.2202 22.5249C55.8636 23.1101 55.3754 23.9093 55.077 24.1273C54.7641 24.3549 53.8786 24.5671 53.1656 24.7386C51.4819 25.1425 49.3868 25.6455 48.0654 27.4628ZM75.2568 83.9264L69.7513 79.6444C68.7496 78.8636 67.343 78.8636 66.3422 79.6444L60.8357 83.9264L60.8348 65.5923C61.2329 65.6853 61.6427 65.7483 62.069 65.7483C63.5386 65.7483 64.8754 65.197 66.0564 64.7098C66.754 64.422 67.622 64.0636 68.0521 64.0636C68.4813 64.0636 69.3493 64.422 70.0468 64.7098C71.2278 65.197 72.5646 65.7483 74.0343 65.7483C74.4567 65.7483 74.8616 65.6853 75.2579 65.5943V83.9264L75.2568 83.9264ZM85.9781 43.6576C85.5267 44.1827 85.0501 44.7533 84.6306 45.384C84.5928 45.4363 84.5628 45.4935 84.5289 45.5506C84.2246 46.0282 83.9495 46.5329 83.7674 47.0978C83.3033 48.5286 83.4157 49.9905 83.5146 51.2819C83.563 51.9203 83.6463 52.9898 83.5775 53.2097C83.3276 53.4316 82.2716 53.6864 81.64 53.8375C80.3873 54.1388 78.9652 54.4808 77.7599 55.3585C76.9006 55.9823 76.2738 56.7971 75.7391 57.6109C75.7352 57.6176 75.7294 57.6244 75.7236 57.6322C75.5182 57.946 75.3234 58.2589 75.1384 58.5603C74.7964 59.1202 74.2248 60.059 74.0398 60.1936H74.0301C73.661 60.1936 72.794 59.8371 72.1604 59.5755C70.9494 59.0756 69.5786 58.5099 68.0479 58.5099C66.5172 58.5099 65.1455 59.0746 63.9345 59.5755C63.3009 59.8371 62.4348 60.1936 62.1655 60.2256C61.8729 60.0589 61.3004 59.1212 60.9584 58.5603C60.7753 58.2599 60.5835 57.9509 60.3791 57.6409C60.3597 57.6099 60.3384 57.5828 60.3181 57.5518C59.792 56.7574 59.1768 55.9669 58.3388 55.3575C57.1317 54.4788 55.7095 54.1378 54.457 53.8365C53.8254 53.6854 52.7694 53.4306 52.5825 53.2959C52.4517 52.9907 52.535 51.9212 52.5834 51.2818C52.6823 49.9905 52.7946 48.5277 52.3306 47.0957C52.1475 46.5319 51.8724 46.0281 51.5691 45.5515C51.5343 45.4943 51.5042 45.4362 51.4664 45.3839C51.047 44.7551 50.5694 44.1836 50.1179 43.6585C49.6829 43.1499 48.9515 42.2993 48.8934 42.0145C48.9515 41.6803 49.682 40.8287 50.1179 40.3211C50.9443 39.3601 51.8791 38.2702 52.3306 36.881C52.7946 35.4501 52.6823 33.9882 52.5834 32.6969C52.535 32.0585 52.4517 30.987 52.5205 30.769C52.7704 30.5472 53.8244 30.2924 54.458 30.1413C55.7107 29.84 57.1328 29.498 58.3398 28.6203C59.5343 27.7513 60.29 26.5122 60.9575 25.4195C61.2995 24.8586 61.8711 23.9208 62.0668 23.7852C62.4359 23.7852 63.303 24.1417 63.9365 24.4033C65.1465 24.9022 66.5183 25.4689 68.049 25.4689C69.5777 25.4689 70.9504 24.9042 72.1594 24.4033C72.793 24.1417 73.6611 23.7852 73.9313 23.7532C74.2239 23.9199 74.7964 24.8586 75.1384 25.4186C75.8049 26.5113 76.5606 27.7494 77.7561 28.6193C78.9632 29.497 80.3855 29.839 81.6379 30.1403C82.2696 30.2914 83.3256 30.5462 83.5145 30.6818C83.6452 30.986 83.5619 32.0565 83.5135 32.6959C83.4147 33.9863 83.3023 35.45 83.7663 36.8791C84.0347 37.7044 84.4774 38.4155 84.9637 39.0646C85.0044 39.1256 85.0509 39.1809 85.0955 39.238C85.3871 39.6158 85.6874 39.9801 85.9771 40.3182C86.413 40.8268 87.1435 41.6765 87.2016 41.9613C87.1444 42.2974 86.416 43.1481 85.9781 43.6576ZM114.137 40.7649C113.358 42.8187 111.142 44.1993 108.621 44.1993H92.2939C92.5748 43.5328 92.7579 42.8023 92.7579 41.9885C92.7579 41.3956 92.661 40.8454 92.5012 40.3329H114.284C114.232 40.4753 114.19 40.6215 114.137 40.7649ZM118.786 34.7768H117.764H117.728H88.994C88.9649 34.3214 89.0153 33.6724 89.057 33.1231C89.1887 31.4054 89.3524 29.2663 88.0417 27.4636C86.7212 25.6471 84.6249 25.1443 82.9422 24.7404C82.2301 24.5699 81.3437 24.3568 81.0308 24.1311C80.9949 24.1049 80.9504 24.0478 80.9097 24.0071C82.0635 19.5943 82.2263 14.7835 81.3873 9.41339H116.57C119.479 9.65752 122.907 14.6352 123.398 22.2924C123.805 28.6959 121.331 34.059 118.788 34.777L118.786 34.7768Z" fill="#C4C4C4"/>
<path d="M117.063 3.87639C116.976 3.8667 116.889 3.86767 116.803 3.86089C116.784 3.86089 116.767 3.85508 116.748 3.85508H116.706C116.409 3.83667 116.11 3.83667 115.81 3.85508H79.8936C78.8037 1.99503 76.9969 0.904297 74.8171 0.904297H60.9345C58.8487 0.904297 57.694 1.86242 57.0934 2.66651C56.8124 3.04142 56.6293 3.44443 56.485 3.85714H20.7596C20.4816 3.84164 20.2026 3.84454 19.9236 3.85714H19.3597C19.0459 3.85714 18.7485 3.92107 18.4685 4.01698C18.109 3.92689 17.7264 3.90267 17.3379 3.96661C9.01901 5.34711 3.19953 15.5046 4.08988 27.0902C4.72152 35.3211 8.15396 42.6283 13.2701 46.6391C16.0205 48.7956 19.0799 49.9039 22.2226 49.9039C22.8727 49.9039 23.5266 49.8487 24.1805 49.7527H47.1154C47.1048 50.1093 47.0747 50.5016 47.0486 50.8523C46.9168 52.5699 46.7512 54.7081 48.0629 56.5118C49.3833 58.3283 51.4797 58.8311 53.1624 59.2349C53.8744 59.4054 54.7609 59.6186 55.0738 59.8462C55.1348 59.8908 55.2075 59.9712 55.2792 60.0574V89.6024C55.2792 90.6632 55.8846 91.631 56.836 92.0971C57.7902 92.5641 58.9247 92.4469 59.7607 91.7939L68.0446 85.3514L76.3276 91.7939C76.8236 92.1804 77.4261 92.379 78.0326 92.379C78.4482 92.379 78.8657 92.286 79.2533 92.0971C80.2056 91.6302 80.8101 90.6624 80.8101 89.6017L80.811 60.0691C80.8885 59.977 80.9641 59.8937 81.028 59.8482C81.341 59.6205 82.2264 59.4084 82.9394 59.2369C84.6232 58.8329 86.7186 58.3301 88.0389 56.5145C89.3497 54.7116 89.186 52.5725 89.0542 50.854C89.0261 50.5023 88.9971 50.111 88.9874 49.7545H108.623C113.437 49.7545 117.741 46.9334 119.34 42.7173C119.655 41.8657 119.933 41.0064 120.189 40.1452C125.776 38.6494 129.517 30.965 128.942 21.9361C128.289 11.7708 123.36 4.34024 117.062 3.87523L117.063 3.87639ZM74.8171 6.46012C75.0738 6.46012 75.2337 6.89027 75.3112 7.17121C75.318 7.20318 75.3276 7.23418 75.3364 7.26518C75.3431 7.29134 75.3528 7.32912 75.3587 7.34849C76.279 11.5306 76.5599 15.2817 76.2267 18.7055C76.0513 18.628 75.8799 18.5456 75.689 18.4846C75.1668 18.315 74.6098 18.2288 74.0353 18.2288C72.5656 18.2288 71.2288 18.7801 70.0478 19.2674C69.3503 19.5551 68.4823 19.9116 68.0531 19.9116C67.623 19.9116 66.7549 19.5532 66.0574 19.2654C65.1884 18.907 64.2313 18.5166 63.2004 18.3335C63.4726 15.3554 63.2634 12.2516 62.5542 9.18823C62.4806 8.87048 62.3682 8.48295 62.2413 8.05186C62.1347 7.68759 61.9381 7.024 61.8209 6.45919L74.8171 6.46012ZM23.9981 44.1993C23.8915 44.1993 23.7898 44.2187 23.6871 44.2312C23.6416 44.2371 23.5951 44.2322 23.5495 44.24C20.5908 44.7331 18.1904 43.4397 16.6954 42.2695C12.7843 39.2034 10.1396 33.3693 9.62619 26.6674C8.97614 18.2178 12.9229 10.3319 18.2434 9.4483C18.3141 9.43764 18.3771 9.41051 18.4449 9.39404C18.8479 9.50545 19.28 9.53742 19.7189 9.45217C19.8816 9.4202 20.0424 9.41923 20.2032 9.41342H20.5433C21.2156 9.46767 21.8812 9.7457 22.5651 10.2708C25.1479 12.2568 27.0399 16.9746 27.3799 22.2894C27.7936 28.7123 25.3096 34.0861 22.7638 34.7778L22.1244 34.7768C21.9771 34.7264 21.8076 34.6509 21.5983 34.4881C20.4222 33.5852 19.1347 31.081 18.9052 27.5256C18.6369 23.3355 20.3816 20.6997 21.1538 20.5464C22.6583 20.2481 23.6358 18.7852 23.3374 17.2817C23.0371 15.7772 21.5791 14.8016 20.0706 15.0971C15.8302 15.9389 12.9462 21.4349 13.3598 27.8811C13.6698 32.6785 15.4834 36.7947 18.2123 38.8931C19.0716 39.5528 20.0152 39.981 20.987 40.2067C21.081 40.2348 21.175 40.2639 21.2728 40.2813C21.6613 40.354 22.0546 40.3956 22.4489 40.3956C22.6669 40.3956 22.8868 40.354 23.1048 40.3317H43.603C43.4431 40.8451 43.3463 41.3945 43.3463 41.9873C43.3463 42.8011 43.5294 43.5316 43.8103 44.1981L23.9981 44.1993ZM48.0654 27.4628C46.7546 29.2657 46.9183 31.4049 47.0501 33.1233C47.0927 33.6736 47.1421 34.3217 47.1131 34.777H30.3862C32.257 31.4289 33.244 26.8874 32.9263 21.932C32.6115 17.0242 31.2349 12.6491 29.1182 9.41165H56.8528C56.8741 9.47946 56.8944 9.556 56.9138 9.62284C57.0039 9.93382 57.0901 10.2128 57.1434 10.4405C57.9446 13.9116 57.9785 17.4177 57.2364 20.5845C57.1986 20.7424 57.1841 20.9012 57.1754 21.0582C56.8198 21.5523 56.506 22.0551 56.2202 22.5249C55.8636 23.1101 55.3754 23.9093 55.077 24.1273C54.7641 24.3549 53.8786 24.5671 53.1656 24.7386C51.4819 25.1425 49.3868 25.6455 48.0654 27.4628ZM75.2568 83.9264L69.7513 79.6444C68.7496 78.8636 67.343 78.8636 66.3422 79.6444L60.8357 83.9264L60.8348 65.5923C61.2329 65.6853 61.6427 65.7483 62.069 65.7483C63.5386 65.7483 64.8754 65.197 66.0564 64.7098C66.754 64.422 67.622 64.0636 68.0521 64.0636C68.4813 64.0636 69.3493 64.422 70.0468 64.7098C71.2278 65.197 72.5646 65.7483 74.0343 65.7483C74.4567 65.7483 74.8616 65.6853 75.2579 65.5943V83.9264L75.2568 83.9264ZM85.9781 43.6576C85.5267 44.1827 85.0501 44.7533 84.6306 45.384C84.5928 45.4363 84.5628 45.4935 84.5289 45.5506C84.2246 46.0282 83.9495 46.5329 83.7674 47.0978C83.3033 48.5286 83.4157 49.9905 83.5146 51.2819C83.563 51.9203 83.6463 52.9898 83.5775 53.2097C83.3276 53.4316 82.2716 53.6864 81.64 53.8375C80.3873 54.1388 78.9652 54.4808 77.7599 55.3585C76.9006 55.9823 76.2738 56.7971 75.7391 57.6109C75.7352 57.6176 75.7294 57.6244 75.7236 57.6322C75.5182 57.946 75.3234 58.2589 75.1384 58.5603C74.7964 59.1202 74.2248 60.059 74.0398 60.1936H74.0301C73.661 60.1936 72.794 59.8371 72.1604 59.5755C70.9494 59.0756 69.5786 58.5099 68.0479 58.5099C66.5172 58.5099 65.1455 59.0746 63.9345 59.5755C63.3009 59.8371 62.4348 60.1936 62.1655 60.2256C61.8729 60.0589 61.3004 59.1212 60.9584 58.5603C60.7753 58.2599 60.5835 57.9509 60.3791 57.6409C60.3597 57.6099 60.3384 57.5828 60.3181 57.5518C59.792 56.7574 59.1768 55.9669 58.3388 55.3575C57.1317 54.4788 55.7095 54.1378 54.457 53.8365C53.8254 53.6854 52.7694 53.4306 52.5825 53.2959C52.4517 52.9907 52.535 51.9212 52.5834 51.2818C52.6823 49.9905 52.7946 48.5277 52.3306 47.0957C52.1475 46.5319 51.8724 46.0281 51.5691 45.5515C51.5343 45.4943 51.5042 45.4362 51.4664 45.3839C51.047 44.7551 50.5694 44.1836 50.1179 43.6585C49.6829 43.1499 48.9515 42.2993 48.8934 42.0145C48.9515 41.6803 49.682 40.8287 50.1179 40.3211C50.9443 39.3601 51.8791 38.2702 52.3306 36.881C52.7946 35.4501 52.6823 33.9882 52.5834 32.6969C52.535 32.0585 52.4517 30.987 52.5205 30.769C52.7704 30.5472 53.8244 30.2924 54.458 30.1413C55.7107 29.84 57.1328 29.498 58.3398 28.6203C59.5343 27.7513 60.29 26.5122 60.9575 25.4195C61.2995 24.8586 61.8711 23.9208 62.0668 23.7852C62.4359 23.7852 63.303 24.1417 63.9365 24.4033C65.1465 24.9022 66.5183 25.4689 68.049 25.4689C69.5777 25.4689 70.9504 24.9042 72.1594 24.4033C72.793 24.1417 73.6611 23.7852 73.9313 23.7532C74.2239 23.9199 74.7964 24.8586 75.1384 25.4186C75.8049 26.5113 76.5606 27.7494 77.7561 28.6193C78.9632 29.497 80.3855 29.839 81.6379 30.1403C82.2696 30.2914 83.3256 30.5462 83.5145 30.6818C83.6452 30.986 83.5619 32.0565 83.5135 32.6959C83.4147 33.9863 83.3023 35.45 83.7663 36.8791C84.0347 37.7044 84.4774 38.4155 84.9637 39.0646C85.0044 39.1256 85.0509 39.1809 85.0955 39.238C85.3871 39.6158 85.6874 39.9801 85.9771 40.3182C86.413 40.8268 87.1435 41.6765 87.2016 41.9613C87.1444 42.2974 86.416 43.1481 85.9781 43.6576ZM114.137 40.7649C113.358 42.8187 111.142 44.1993 108.621 44.1993H92.2939C92.5748 43.5328 92.7579 42.8023 92.7579 41.9885C92.7579 41.3956 92.661 40.8454 92.5012 40.3329H114.284C114.232 40.4753 114.19 40.6215 114.137 40.7649ZM118.786 34.7768H117.764H117.728H88.994C88.9649 34.3214 89.0153 33.6724 89.057 33.1231C89.1887 31.4054 89.3524 29.2663 88.0417 27.4636C86.7212 25.6471 84.6249 25.1443 82.9422 24.7404C82.2301 24.5699 81.3437 24.3568 81.0308 24.1311C80.9949 24.1049 80.9504 24.0478 80.9097 24.0071C82.0635 19.5943 82.2263 14.7835 81.3873 9.41339H116.57C119.479 9.65752 122.907 14.6352 123.398 22.2924C123.805 28.6959 121.331 34.059 118.788 34.777L118.786 34.7768Z" stroke="black" stroke-width="2" mask="url(#path-2-inside-1_32_33)"/>
</g>
<g filter="url(#filter1_i_32_33)">
<path d="M68.054 29.3367C61.0788 29.3367 55.4026 35.0118 55.4026 41.988C55.4026 48.9642 61.0788 54.6393 68.054 54.6393C75.0292 54.6393 80.7033 48.9642 80.7033 41.988C80.7033 35.0118 75.0302 29.3367 68.054 29.3367V29.3367ZM68.054 49.0832C64.1422 49.0832 60.9588 45.8998 60.9588 41.988C60.9588 38.0762 64.1422 34.8928 68.054 34.8928C71.965 34.8928 75.1482 38.0762 75.1482 41.988C75.1482 45.8998 71.9668 49.0832 68.054 49.0832Z" fill="#C4C4C4"/>
</g>
<path d="M55.9026 41.988C55.9026 35.288 61.3549 29.8367 68.054 29.8367C74.7539 29.8367 80.2033 35.2878 80.2033 41.988C80.2033 48.6881 74.7529 54.1393 68.054 54.1393C61.3549 54.1393 55.9026 48.688 55.9026 41.988ZM60.4588 41.988C60.4588 46.1759 63.866 49.5832 68.054 49.5832C72.2431 49.5832 75.6482 46.1758 75.6482 41.988C75.6482 37.8001 72.2412 34.3928 68.054 34.3928C63.866 34.3928 60.4588 37.8 60.4588 41.988Z" stroke="black"/>
<defs>
<filter id="filter0_di_32_33" x="0" y="-1.0957" width="133" height="101.476" filterUnits="userSpaceOnUse" color-interpolation-filters="sRGB">
<feFlood flood-opacity="0" result="BackgroundImageFix"/>
<feColorMatrix in="SourceAlpha" type="matrix" values="0 0 0 0 0 0 0 0 0 0 0 0 0 0 0 0 0 0 127 0" result="hardAlpha"/>
<feOffset dy="4"/>
<feGaussianBlur stdDeviation="2"/>
<feComposite in2="hardAlpha" operator="out"/>
<feColorMatrix type="matrix" values="0 0 0 0 0 0 0 0 0 0 0 0 0 0 0 0 0 0 0.25 0"/>
<feBlend mode="normal" in2="BackgroundImageFix" result="effect1_dropShadow_32_33"/>
<feBlend mode="normal" in="SourceGraphic" in2="effect1_dropShadow_32_33" result="shape"/>
<feColorMatrix in="SourceAlpha" type="matrix" values="0 0 0 0 0 0 0 0 0 0 0 0 0 0 0 0 0 0 127 0" result="hardAlpha"/>
<feOffset dy="-5"/>
<feGaussianBlur stdDeviation="1"/>
<feComposite in2="hardAlpha" operator="arithmetic" k2="-1" k3="1"/>
<feColorMatrix type="matrix" values="0 0 0 0 0 0 0 0 0 0 0 0 0 0 0 0 0 0 0.25 0"/>
<feBlend mode="normal" in2="shape" result="effect2_innerShadow_32_33"/>
</filter>
<filter id="filter1_i_32_33" x="55.4026" y="26.3367" width="25.3007" height="28.3027" filterUnits="userSpaceOnUse" color-interpolation-filters="sRGB">
<feFlood flood-opacity="0" result="BackgroundImageFix"/>
<feBlend mode="normal" in="SourceGraphic" in2="BackgroundImageFix" result="shape"/>
<feColorMatrix in="SourceAlpha" type="matrix" values="0 0 0 0 0 0 0 0 0 0 0 0 0 0 0 0 0 0 127 0" result="hardAlpha"/>
<feOffset dy="-5"/>
<feGaussianBlur stdDeviation="1.5"/>
<feComposite in2="hardAlpha" operator="arithmetic" k2="-1" k3="1"/>
<feColorMatrix type="matrix" values="0 0 0 0 0 0 0 0 0 0 0 0 0 0 0 0 0 0 0.25 0"/>
<feBlend mode="normal" in2="shape" result="effect1_innerShadow_32_33"/>
</filter>
</defs>
</svg>
